<svg xmlns="http://www.w3.org/2000/svg" viewBox="0 0 476.33 424.19"><defs><style>.cls-1{fill:#5755d9;}.cls-2{fill:#f2f2f2;fill-rule:evenodd;}.cls-3{fill:#fff;stroke:#3fa9f5;stroke-miterlimit:10;}</style></defs><g id="Layer_2" data-name="Layer 2"><g id="Layer_1-2" data-name="Layer 1"><path class="cls-1" d="M476.33,212.14c0-31.55-39.52-61.46-100.1-80,14-61.75,7.76-110.88-19.62-126.61A42.55,42.55,0,0,0,334.87.1V21.75a22.47,22.47,0,0,1,11.06,2.52c13.21,7.58,18.94,36.41,14.47,73.5-1.07,9.13-2.81,18.74-4.95,28.55a469,469,0,0,0-61.65-10.59,473.8,473.8,0,0,0-40.39-48.54C285.06,37.77,314.77,21.65,335,21.65V0h0c-26.7,0-61.65,19-97,52C202.63,19.22,167.68.39,141,.39V22c20.09,0,49.9,16,81.55,45.24a460.76,460.76,0,0,0-40.1,48.45,453,453,0,0,0-61.75,10.68c-2.23-9.71-3.88-19.12-5-28.15-4.57-37.09,1.06-65.93,14.17-73.6,2.91-1.75,6.7-2.52,11.17-2.52V.49h0A43.3,43.3,0,0,0,119,5.92C91.75,21.65,85.63,70.68,99.71,132.24,39.32,150.88,0,180.69,0,212.14s39.52,61.46,100.1,80c-14,61.75-7.77,110.87,19.61,126.6,6.31,3.69,13.69,5.44,21.85,5.44,26.7,0,61.65-19,97-52,35.34,32.82,70.3,51.65,97,51.65a43.3,43.3,0,0,0,21.94-5.44c27.28-15.72,33.4-64.76,19.32-126.31C437,273.5,476.33,243.6,476.33,212.14ZM349.92,147.38c-3.6,12.53-8.06,25.44-13.11,38.35-4-7.76-8.16-15.53-12.72-23.3s-9.22-15.34-14-22.72C323.9,141.75,337.2,144.28,349.92,147.38ZM305.45,250.79c-7.58,13.1-15.34,25.53-23.4,37.08-14.47,1.27-29.13,1.95-43.89,1.95s-29.32-.68-43.69-1.85Q182.38,270.65,171,251.08c-7.38-12.72-14.08-25.64-20.2-38.65,6-13,12.82-26,20.1-38.73,7.57-13.11,15.34-25.54,23.4-37.09,14.47-1.27,29.13-1.94,43.88-1.94s29.33.67,43.69,1.84c8.06,11.55,15.93,23.88,23.5,36.89,7.38,12.72,14.08,25.64,20.2,38.65C319.43,225.06,312.73,238.07,305.45,250.79Zm31.36-12.63c5.24,13,9.71,26,13.4,38.65-12.72,3.1-26.12,5.72-40,7.76,4.75-7.47,9.51-15.14,14-23S332.83,245.93,336.81,238.16Zm-98.45,103.6a399.46,399.46,0,0,1-27-31.07c8.73.39,17.67.68,26.7.68s18.15-.19,27-.68A379.62,379.62,0,0,1,238.36,341.76Zm-72.24-57.19c-13.78-2-27.09-4.56-39.8-7.67,3.59-12.52,8.05-25.43,13.1-38.35,4,7.77,8.16,15.54,12.72,23.3S161.36,277.19,166.12,284.57Zm71.75-202a399.46,399.46,0,0,1,27,31.07c-8.73-.39-17.67-.68-26.7-.68s-18.15.19-27,.68A379.62,379.62,0,0,1,237.87,82.53ZM166,139.71c-4.76,7.48-9.52,15.15-14,23S143.4,178.26,139.42,186c-5.24-13-9.71-26-13.4-38.65C138.74,144.37,152.14,141.75,166,139.71ZM78.16,261.27c-34.37-14.66-56.61-33.88-56.61-49.13S43.79,177.58,78.16,163c8.35-3.6,17.47-6.8,26.89-9.81a467.07,467.07,0,0,0,21.85,59.13,460.4,460.4,0,0,0-21.56,58.83C95.73,268.16,86.6,264.86,78.16,261.27ZM130.39,400c-13.2-7.57-18.93-36.4-14.46-73.49,1.06-9.13,2.81-18.74,4.95-28.55a470.68,470.68,0,0,0,61.65,10.58,472.88,472.88,0,0,0,40.39,48.55c-31.65,29.42-61.36,45.54-81.56,45.54A23.26,23.26,0,0,1,130.39,400Zm230.3-74c4.57,37.09-1.07,65.93-14.17,73.6-2.92,1.74-6.7,2.52-11.17,2.52-20.1,0-49.9-16-81.55-45.24a459.48,459.48,0,0,0,40.09-48.45,452.78,452.78,0,0,0,61.75-10.68A270.15,270.15,0,0,1,360.69,326Zm37.38-64.76c-8.35,3.59-17.47,6.8-26.89,9.81A467.07,467.07,0,0,0,349.33,212a459.55,459.55,0,0,0,21.56-58.84c9.61,3,18.74,6.31,27.28,9.91,34.37,14.66,56.6,33.88,56.6,49.12S432.44,246.71,398.07,261.27Z"/><polygon class="cls-1" points="277.44 144.26 199.03 144.26 159.83 212.16 199.03 280.06 277.44 280.06 316.64 212.16 277.44 144.26"/><path id="b" class="cls-2" d="M264.77,238.49a17.18,17.18,0,0,0-1.15-5.59,13.48,13.48,0,0,0-4.18-5.4,32.74,32.74,0,0,0-8.07-4.6,119.51,119.51,0,0,0-12.9-4.42,109.43,109.43,0,0,1-14.83-5.32,48.77,48.77,0,0,1-11.3-6.87,27.72,27.72,0,0,1-7.17-8.87,24.9,24.9,0,0,1-2.51-11.4v-.68h14.72v.45a13.44,13.44,0,0,0,1.49,6.34,15.83,15.83,0,0,0,4.58,5.29,34.51,34.51,0,0,0,8,4.45,100.44,100.44,0,0,0,11.72,3.93,105.35,105.35,0,0,1,16.24,5.85,45,45,0,0,1,11.27,7.28,26.75,26.75,0,0,1,6.6,9.13,28.42,28.42,0,0,1,2.15,10.43H264.77Zm-25.54,18.6V269a57.33,57.33,0,0,1-8.42-.91,51.16,51.16,0,0,1-9.75-2.84,44.12,44.12,0,0,1-8.65-4.68,33.26,33.26,0,0,1-6.94-6.49,28.87,28.87,0,0,1-4.63-8.31,29.5,29.5,0,0,1-1.67-10.11h14.64A19,19,0,0,0,222.05,252a26.2,26.2,0,0,0,8.64,3.89A41.67,41.67,0,0,0,239.23,257.09Zm0-101,1,0a46.16,46.16,0,0,1,16.61,2.79,37.54,37.54,0,0,1,12.25,7.41,30.94,30.94,0,0,1,7.55,10.64,31.36,31.36,0,0,1,2.58,12.46H264.58a23.89,23.89,0,0,0-1.49-8.53,17.86,17.86,0,0,0-4.51-6.8,20.79,20.79,0,0,0-7.59-4.44A32.72,32.72,0,0,0,240.22,168h-1Z"/><path class="cls-3" d="M266,234.16H278a26,26,0,0,0-2-8.57,25.27,25.27,0,0,0-6.27-8.68,43.49,43.49,0,0,0-10.94-7.06,103.31,103.31,0,0,0-16-5.77,102.43,102.43,0,0,1-11.87-4,36.21,36.21,0,0,1-8.31-4.63,17.45,17.45,0,0,1-4.95-5.72,14.72,14.72,0,0,1-1.61-6.08H204a23.46,23.46,0,0,0,2.36,10.16,26.25,26.25,0,0,0,6.83,8.45,48,48,0,0,0,11,6.68,110.58,110.58,0,0,0,14.66,5.25,118.77,118.77,0,0,1,13,4.47,34.53,34.53,0,0,1,8.4,4.8,14.82,14.82,0,0,1,4.56,5.92A18.13,18.13,0,0,1,266,234.16Zm-28.08,21.19a41.18,41.18,0,0,1-7.54-1.19,27.39,27.39,0,0,1-9.09-4.09,21.1,21.1,0,0,1-6.39-7.12,20.24,20.24,0,0,1-2.38-9h-12a27.09,27.09,0,0,0,1.56,8.34,28.07,28.07,0,0,0,4.42,7.93,32.13,32.13,0,0,0,6.66,6.23,42.81,42.81,0,0,0,8.39,4.54,50,50,0,0,0,9.5,2.75,55.18,55.18,0,0,0,6.85.83v-9.21Zm2.64-101v9.28a34.41,34.41,0,0,1,10.88,1.66,22.11,22.11,0,0,1,8.05,4.74,19.41,19.41,0,0,1,4.85,7.29,25,25,0,0,1,1.54,7.68h12a30.45,30.45,0,0,0-2.43-10.62,29.69,29.69,0,0,0-7.24-10.19,36.11,36.11,0,0,0-11.83-7.13,44.43,44.43,0,0,0-15.8-2.7Z"/></g></g></svg>